<?xml version="1.0" encoding="UTF-8"?>
<svg width="1000px" height="864px" viewBox="0 0 1000 864" version="1.1" xmlns="http://www.w3.org/2000/svg" xmlns:xlink="http://www.w3.org/1999/xlink">
    <!-- Generator: Sketch 51.3 (57544) - http://www.bohemiancoding.com/sketch -->
    <title>logo/isao</title>
    <desc>Created with Sketch.</desc>
    <defs></defs>
    <g id="logo/isao" stroke="none" stroke-width="1" fill="none" fill-rule="evenodd">
        <g id="iin-logo-(1)" transform="translate(35.000000, 379.000000)" fill-rule="nonzero">
            <path d="M304.796995,51.8438357 C299.252295,36.1873544 275.332954,30.4711699 241.659175,34.010217 C270.577408,31.6577029 290.863065,37.0423158 295.716225,50.7504716 C305.484412,78.3380494 249.050276,129.169891 169.664682,164.290447 C90.2790879,199.411002 18.0055039,205.517674 8.23731702,177.930096 C2.55375833,161.877647 19.286848,137.959279 49.9057487,113.842241 C14.4831823,140.766676 -5.2167965,168.022682 1.20367255,186.152249 C11.7087698,215.822426 88.1865925,209.808923 172.023895,172.71949 C255.857073,135.632797 315.300718,81.514012 304.796995,51.8438357 Z" id="Shape" fill="#EE2B3F"></path>
            <path d="M266,115.99863 C266,180.06706 214.067367,232 150.000685,232 C117.371598,232 95.1892964,225.411145 74.1122071,203.725856 C73.2439242,202.835655 176.110802,191.291806 247.783862,120.555089 C175.293192,178.519481 60.9564879,190.394758 59.4007001,188.450012 C43.5059179,168.597166 34,143.408595 34,115.99863 C34,51.9329398 85.9340028,0 149.999315,0 C214.064628,0 266,51.9329398 266,115.99863 Z" id="Shape" fill="#1F5EAC"></path>
            <g id="Group" transform="translate(85.000000, 55.000000)" fill="#FFFFFF">
                <polygon id="Shape" points="12.5956478 2.09655172 12.5956478 78.0482759 0.675205292 78.0482759 0.675205292 2.09655172"></polygon>
                <polygon id="Shape" points="40.9815511 2.09655172 40.9815511 78.0482759 29.0611086 78.0482759 29.0611086 2.09655172"></polygon>
                <path d="M69.2678786,78.0482759 L57.3474361,78.0482759 L57.3474361,17.2868966 C57.3474361,12.3365517 58.625552,8.34206897 61.1858759,5.30344828 C63.7448358,2.26482759 67.6855794,0.746206897 73.0067427,0.746206897 C77.7195392,0.746206897 81.3056296,2.00275862 83.7650137,4.51448276 C86.2230338,7.02896552 88.1599863,10.4606897 89.5731432,14.8110345 L109.474649,63.3075862 C109.878408,64.2068966 110.417208,64.9586207 111.091049,65.5572414 C111.763526,66.1586207 112.671984,66.457931 113.819151,66.457931 C115.097267,66.457931 116.093025,66.0634483 116.799603,65.2758621 C117.507546,64.4882759 117.860835,63.457931 117.860835,62.182069 L117.860835,2.09655172 L129.882217,2.09655172 L129.882217,62.7448276 C129.882217,67.7724138 128.585005,71.8027586 125.993307,74.8413793 C123.400246,77.88 119.477235,79.3986207 114.224275,79.3986207 C111.86583,79.3986207 109.793837,79.0786207 108.011022,78.4427586 C106.225479,77.8068966 104.677281,76.8675862 103.3637,75.6289655 C102.051483,74.3917241 100.922048,72.9103448 99.9794891,71.1848276 C99.0355657,69.4606897 98.2280474,67.5103448 97.5555703,65.3337931 L77.6540648,16.8372414 C76.7769799,14.662069 75.363823,13.5737931 73.4105018,13.5737931 C72.0628193,13.5737931 71.0370529,13.9682759 70.3291104,14.7544828 C69.6211679,15.542069 69.2692427,16.6110345 69.2692427,17.9613793 L69.2692427,78.0482759 L69.2678786,78.0482759 Z" id="Shape"></path>
            </g>
            <g id="Group" transform="translate(348.000000, 12.000000)" fill="#1F5EAC">
                <polygon id="Shape" points="1.32665105 80.2414403 1.32665105 3.78510962 13.7219485 3.78510962 13.7219485 80.2428057 1.32665105 80.2428057"></polygon>
                <path d="M60.3913443,80.2414403 L60.3913443,47.9365446 C60.3913443,43.1698009 59.5570585,39.690665 57.8884871,37.4991372 C56.2199157,35.3076093 53.4954941,34.2111627 49.7124871,34.2111627 C47.9645902,34.2111627 46.0963372,34.7518761 44.1104637,35.8292066 C42.1232225,36.9079026 40.575007,38.2473972 39.463082,39.8476904 L39.463082,80.2414403 L27.5451054,80.2414403 L27.5451054,24.3472392 L36.1259391,24.3472392 L38.3197002,29.5659429 C41.5611054,25.3904338 46.3438876,23.3040446 52.6694145,23.3040446 C58.739185,23.3040446 63.5301733,25.2962185 67.0423794,29.2792009 C70.5532178,33.2635488 72.3106885,38.8208811 72.3106885,45.9539288 L72.3106885,80.2414403 L60.3913443,80.2414403 Z" id="Shape"></path>
                <path d="M86.9913817,34.8365333 L81.0802623,34.8365333 L81.0802623,24.3472392 L86.9913817,24.3472392 L86.9913817,12.969045 L98.9093583,8.16679989 L98.9093583,24.3458738 L112.925358,24.3458738 L112.925358,34.8351678 L98.9093583,34.8351678 L98.9093583,59.3120079 C98.9093583,63.312741 99.4810492,66.1405629 100.625799,67.7927428 C101.76918,69.4449227 103.771466,70.2710126 106.632656,70.2710126 C109.493845,70.2710126 112.162192,69.4189794 114.641799,67.7135474 L114.641799,79.7171121 C111.876347,80.7616721 107.936056,81.2832694 102.818192,81.2832694 C97.7331522,81.2832694 93.8243185,79.7089195 91.0916909,76.5602197 C88.3576956,73.4115198 86.9913817,68.9328835 86.9913817,63.1215797 L86.9913817,34.8365333 Z" id="Shape"></path>
                <path d="M169.462576,56.2875629 L132.993349,56.2875629 C133.216281,60.7416214 134.614052,64.2030065 137.188028,66.6730837 C139.762005,69.1445263 143.226342,70.3788822 147.579672,70.3788822 C153.016206,70.3788822 157.145237,68.8304756 159.97497,65.7336624 L164.599101,75.7013592 C160.405789,79.4249084 154.143176,81.2860003 145.818098,81.2860003 C138.031888,81.2860003 131.874585,78.7899798 127.344824,73.7965733 C122.816431,68.8045323 120.55155,61.8367026 120.55155,52.8944497 C120.55155,44.0928369 123.037995,36.9597892 128.012253,31.4980376 C132.985143,26.0362859 138.952337,23.3040446 145.913836,23.3040446 C153.318464,23.3040446 159.26104,25.7222352 163.741564,30.5586163 C168.222089,35.3949974 170.463719,41.5531224 170.463719,49.0329913 C170.465087,50.6332845 170.131372,53.0514751 169.462576,56.2875629 Z M133.424169,46.4755261 L158.499241,46.4755261 C157.673162,38.3006493 153.541396,34.2111627 146.103944,34.2111627 C139.303831,34.2111627 135.076328,38.3006493 133.424169,46.4755261 Z" id="Shape"></path>
                <path d="M209.50829,36.5078293 C207.37881,34.9771734 205.04281,34.2111627 202.50029,34.2111627 C199.736206,34.2111627 197.281218,35.5861587 195.135326,38.3347852 C192.990801,41.0834117 191.917171,44.4410236 191.917171,48.4076207 L191.917171,80.2428057 L179.997827,80.2428057 L179.997827,24.3472392 L191.917171,24.3472392 L191.917171,29.4621696 C195.252946,25.3576632 199.68697,23.3040446 205.217874,23.3040446 C209.285358,23.3040446 212.399569,23.9826673 214.560506,25.3399126 L209.50829,36.5078293 Z" id="Shape"></path>
                <path d="M254.556984,80.2414403 L254.556984,47.9365446 C254.556984,43.1698009 253.724066,39.690665 252.055494,37.4991372 C250.385555,35.3076093 247.661133,34.2111627 243.878126,34.2111627 C242.13023,34.2111627 240.261977,34.7518761 238.277471,35.8292066 C236.29023,36.9079026 234.740646,38.2473972 233.630089,39.8476904 L233.630089,80.2414403 L221.710745,80.2414403 L221.710745,24.3472392 L230.291578,24.3472392 L232.48534,29.5659429 C235.726745,25.3904338 240.509527,23.3040446 246.833686,23.3040446 C252.903457,23.3040446 257.694445,25.2962185 261.208019,29.2792009 C264.717489,33.2635488 266.476328,38.8208811 266.476328,45.9539288 L266.476328,80.2414403 L254.556984,80.2414403 Z" id="Shape"></path>
                <path d="M307.758426,74.6581646 C306.677958,76.6066445 304.79466,78.1987451 302.109902,79.4344665 C299.422407,80.6688223 296.61866,81.2873657 293.695925,81.2873657 C288.196478,81.2873657 283.874604,79.7826531 280.730304,76.773228 C277.583269,73.7638028 276.010436,69.492713 276.010436,63.9599586 C276.010436,57.4891483 278.227447,52.4261045 282.660103,48.7735581 C287.092759,45.1196462 293.393667,43.2926903 301.561461,43.2926903 C302.959232,43.2926903 304.611391,43.5534889 306.519307,44.0764516 C306.519307,37.5005026 302.721255,34.2125281 295.12652,34.2125281 C290.645995,34.2125281 286.894445,35.0304254 283.874604,36.6648546 L281.300628,26.5401325 C285.399569,24.3827406 290.278089,23.3040446 295.93482,23.3040446 C303.72103,23.3040446 309.42563,25.2443319 313.049986,29.123541 C316.672974,33.0027501 318.485152,40.3529024 318.485152,51.1726325 L318.485152,63.1243106 C318.485152,70.5700435 319.851466,75.2493993 322.584094,77.1637432 C321.599363,79.0425858 320.50385,80.1991117 319.296187,80.6346864 C318.087157,81.0688956 316.704431,81.2873657 315.148009,81.2873657 C313.431569,81.2873657 311.890192,80.5909924 310.523878,79.1996111 C309.157564,77.8068645 308.235747,76.2939593 307.758426,74.6581646 Z M306.615044,53.9390097 C304.581302,53.4870498 303.05497,53.2603871 302.038782,53.2603871 C292.630501,53.2603871 287.928412,56.6357496 287.928412,63.3851092 C287.928412,68.3949009 290.581714,70.9004795 295.889686,70.9004795 C303.041293,70.9004795 306.615044,66.985769 306.615044,59.1577134 L306.615044,53.9390097 Z" id="Shape"></path>
                <path d="M333.168581,34.8365333 L327.257461,34.8365333 L327.257461,24.3472392 L333.168581,24.3472392 L333.168581,12.969045 L345.086557,8.16679989 L345.086557,24.3458738 L359.10119,24.3458738 L359.10119,34.8351678 L345.086557,34.8351678 L345.086557,59.3120079 C345.086557,63.312741 345.658248,66.1405629 346.802998,67.7927428 C347.946379,69.4449227 349.948665,70.2710126 352.809855,70.2710126 C355.671044,70.2710126 358.339391,69.4189794 360.81763,67.7135474 L360.81763,79.7171121 C358.053546,80.7616721 354.111888,81.2832694 348.995391,81.2832694 C343.908984,81.2832694 340.00015,79.7089195 337.267522,76.5602197 C334.534895,73.4115198 333.168581,68.9328835 333.168581,63.1215797 L333.168581,34.8365333 Z" id="Shape"></path>
                <path d="M373.259429,80.2414403 L373.259429,35.0454453 L366.728749,35.0454453 L366.728749,24.3472392 L385.321012,24.3472392 L385.321012,80.2414403 L373.259429,80.2414403 Z M379.408525,2.68866297 C381.31644,2.68866297 382.943981,3.42873032 384.295251,4.90749958 C385.645152,6.38626885 386.320787,8.16953076 386.320787,10.2572853 C386.320787,12.3450399 385.645152,14.1283018 384.295251,15.6057057 C382.943981,17.0844749 381.315073,17.8245423 379.408525,17.8245423 C377.501977,17.8245423 375.873068,17.0858404 374.523166,15.6057057 C373.171897,14.1269364 372.49763,12.3436745 372.49763,10.2572853 C372.49763,8.16953076 373.171897,6.38763428 374.523166,4.90749958 C375.873068,3.42873032 377.501977,2.68866297 379.408525,2.68866297 Z" id="Shape"></path>
                <path d="M395.856262,52.1639404 C395.856262,43.6395115 398.104731,36.6989906 402.601667,31.3410122 C407.098604,25.9830338 413.034342,23.3040446 420.408881,23.3040446 C428.162267,23.3040446 434.185536,25.8792605 438.475953,31.0283269 C442.76637,36.1773933 444.910895,43.2230529 444.910895,52.1653058 C444.910895,61.0720574 442.72534,68.151853 438.356965,73.4060581 C433.987222,78.6602632 428.003616,81.2860003 420.408881,81.2860003 C412.652759,81.2860003 406.622651,78.6329544 402.315822,73.3268627 C398.008993,68.0221364 395.856262,60.9669187 395.856262,52.1639404 Z M408.250192,52.1639404 C408.250192,64.4801904 412.302632,70.6383154 420.407513,70.6383154 C424.126239,70.6383154 427.072225,69.0380222 429.249574,65.8360703 C431.426923,62.6354838 432.515597,58.077652 432.515597,52.162575 C432.515597,40.0197356 428.479569,33.9489986 420.407513,33.9489986 C416.688787,33.9489986 413.733227,35.5492919 411.540834,38.7498783 C409.347073,41.9531957 408.250192,46.4236394 408.250192,52.1639404 Z" id="Shape"></path>
                <path d="M487.288506,80.2414403 L487.288506,47.9365446 C487.288506,43.1698009 486.455588,39.690665 484.787016,37.4991372 C483.117077,35.3076093 480.392656,34.2111627 476.609649,34.2111627 C474.861752,34.2111627 472.993499,34.7518761 471.008993,35.8292066 C469.021752,36.9079026 467.472169,38.2473972 466.361611,39.8476904 L466.361611,80.2414403 L454.442267,80.2414403 L454.442267,24.3472392 L463.023101,24.3472392 L465.216862,29.5659429 C468.458267,25.3904338 473.241049,23.3040446 479.565208,23.3040446 C485.634979,23.3040446 490.425967,25.2962185 493.939541,29.2792009 C497.449012,33.2635488 499.20785,38.8208811 499.20785,45.9539288 L499.20785,80.2414403 L487.288506,80.2414403 Z" id="Shape"></path>
                <path d="M540.491316,74.6581646 C539.410848,76.6066445 537.52755,78.1987451 534.842792,79.4344665 C532.155297,80.6688223 529.35155,81.2873657 526.428815,81.2873657 C520.929368,81.2873657 516.607494,79.7826531 513.463194,76.773228 C510.316159,73.7638028 508.743326,69.492713 508.743326,63.9599586 C508.743326,57.4891483 510.960337,52.4261045 515.392993,48.7735581 C519.825649,45.1196462 526.126557,43.2926903 534.294351,43.2926903 C535.692122,43.2926903 537.344281,43.5534889 539.252197,44.0764516 C539.252197,37.5005026 535.454145,34.2125281 527.85941,34.2125281 C523.378885,34.2125281 519.627335,35.0304254 516.607494,36.6648546 L514.033518,26.5401325 C518.132459,24.3827406 523.010979,23.3040446 528.66771,23.3040446 C536.45392,23.3040446 542.15852,25.2443319 545.782876,29.123541 C549.405864,33.0027501 551.218042,40.3529024 551.218042,51.1726325 L551.218042,63.1243106 C551.218042,70.5700435 552.584356,75.2493993 555.316984,77.1637432 C554.332253,79.0425858 553.23674,80.1991117 552.029077,80.6346864 C550.820047,81.0688956 549.437321,81.2873657 547.880899,81.2873657 C546.164459,81.2873657 544.623082,80.5909924 543.256768,79.1996111 C541.889087,77.8068645 540.967269,76.2939593 540.491316,74.6581646 Z M539.346567,53.9390097 C537.312824,53.4870498 535.786492,53.2603871 534.770304,53.2603871 C525.362023,53.2603871 520.659934,56.6357496 520.659934,63.3851092 C520.659934,68.3949009 523.313237,70.9004795 528.621208,70.9004795 C535.772815,70.9004795 539.346567,66.985769 539.346567,59.1577134 L539.346567,53.9390097 Z" id="Shape"></path>
                <path d="M566.136712,3.52431098 L578.054689,0.393361835 L578.054689,63.2294493 C578.054689,70.1180836 579.92978,74.2239554 583.679963,75.5470647 C581.836328,79.3743872 578.69066,81.2887312 574.241593,81.2887312 C568.837883,81.2887312 566.136712,77.1842248 566.136712,68.9711157 L566.136712,3.52431098 Z" id="Shape"></path>
                <polygon id="Shape" points="0.499203747 164.936823 0.499203747 97.0376921 11.5063044 97.0376921 11.5063044 164.938189 0.499203747 164.938189"></polygon>
                <path d="M21.4561874,161.183234 L25.5209368,150.383986 C29.8660609,153.719751 34.1428009,155.389681 38.3484215,155.389681 C44.8120843,155.389681 48.0439157,152.916873 48.0439157,147.972623 C48.0439157,145.65684 47.2821171,143.447561 45.7571522,141.344787 C44.233555,139.243378 41.0933583,136.887998 36.3379297,134.275915 C31.5811335,131.665198 28.3793911,129.518729 26.7272319,127.833779 C25.0764403,126.150194 23.8058642,124.148462 22.9168712,121.831314 C22.0278782,119.514166 21.5833817,116.949873 21.5833817,114.138437 C21.5833817,108.885597 23.3408525,104.528484 26.8544262,101.068465 C30.368,97.6084451 34.8772459,95.8770698 40.3807963,95.8770698 C47.5501827,95.8770698 52.8130211,97.3449156 56.1720468,100.280607 L52.8266979,110.663397 C48.9602623,107.634856 44.8818361,106.120585 40.5914192,106.120585 C38.0516347,106.120585 36.083541,106.855191 34.6857705,108.321671 C33.2893677,109.789517 32.5904824,111.698399 32.5904824,114.045587 C32.5904824,117.93845 36.5266698,121.986974 44.4017799,126.188426 C48.5499578,128.412725 51.542445,130.460881 53.3778735,132.3288 C55.2119344,134.19945 56.6083372,136.377324 57.5684496,138.863786 C58.5271944,141.351614 59.0072506,144.124819 59.0072506,147.184765 C59.0072506,152.683383 57.0241124,157.211176 53.0592037,160.764045 C49.0942951,164.31828 43.7808525,166.093349 37.1202436,166.093349 C31.3335831,166.09608 26.1117752,164.45892 21.4561874,161.183234 Z" id="Shape"></path>
                <path d="M104.942201,164.936823 L100.41244,151.171844 L79.1586698,151.171844 L74.8408993,164.936823 L62.6056206,164.936823 L87.3305667,96.1105597 L92.1571148,96.1105597 L117.092684,164.936823 L104.942201,164.936823 Z M89.7431569,116.874774 L82.2920281,141.949676 L97.1942857,141.949676 L89.7431569,116.874774 Z" id="Shape"></path>
                <path d="M120.691054,130.407629 C120.691054,120.736233 123.110482,112.555894 127.952075,105.866614 C132.7923,99.1773333 139.262801,95.8320104 147.362211,95.8320104 C156.280862,95.8320104 163.097386,98.8605517 167.810417,104.916269 C172.523447,110.973351 174.88133,119.469106 174.88133,130.407629 C174.88133,141.346152 172.418136,150.028972 167.493115,156.454723 C162.566726,162.881839 155.576506,166.09608 146.515616,166.09608 C138.190539,166.09608 131.804834,162.91461 127.358501,156.548938 C122.913536,150.183267 120.691054,141.470407 120.691054,130.407629 Z M132.122136,130.407629 C132.122136,138.349016 133.350314,144.497583 135.805302,148.854696 C138.26029,153.211808 141.829939,155.389681 146.515616,155.389681 C152.019166,155.389681 156.217948,153.256867 159.110595,148.992605 C162.003241,144.728342 163.451616,138.534716 163.451616,130.407629 C163.451616,114.494816 158.087569,106.538409 147.362211,106.538409 C142.452234,106.538409 138.684272,108.69307 136.058323,113.003758 C133.43511,117.314445 132.122136,123.116191 132.122136,130.407629 Z" id="Shape"></path>
                <polygon id="Shape" points="251.423625 165.863956 221.322323 122.899086 221.322323 164.983248 210.739204 164.983248 210.739204 97.0376921 216.030763 97.0376921 245.327869 138.009022 245.327869 97.0376921 255.910988 97.0376921 255.910988 165.863956"></polygon>
                <path d="M308.450473,143.663301 L276.062407,143.663301 C276.260721,147.617609 277.502576,150.692575 279.78934,152.886834 C282.074735,155.079727 285.150651,156.177539 289.018454,156.177539 C293.843635,156.177539 297.513124,154.802543 300.025555,152.052551 L304.132703,160.904685 C300.40577,164.211776 294.846145,165.863956 287.452459,165.863956 C280.536094,165.863956 275.069471,163.64785 271.047119,159.212908 C267.026136,154.779331 265.014276,148.592531 265.014276,140.651145 C265.014276,132.832647 267.223082,126.499746 271.640693,121.648345 C276.056937,116.79831 281.356703,114.371926 287.537255,114.371926 C294.114436,114.371926 299.392319,116.51976 303.370904,120.814063 C307.350857,125.10973 309.340834,130.578309 309.340834,137.221164 C309.340834,138.642585 309.044047,140.790419 308.450473,143.663301 Z M276.445358,134.949076 L298.713948,134.949076 C297.979504,127.689042 294.310014,124.056978 287.70548,124.056978 C281.665799,124.058343 277.911513,127.689042 276.445358,134.949076 Z" id="Shape"></path>
                <path d="M319.416543,124.614076 L314.166014,124.614076 L314.166014,115.299059 L319.416543,115.299059 L319.416543,105.194818 L329.999663,100.930556 L329.999663,115.299059 L342.446932,115.299059 L342.446932,124.614076 L329.999663,124.614076 L329.999663,146.351848 C329.999663,149.906083 330.507073,152.415758 331.52326,153.883603 C332.539447,155.351449 334.317433,156.084689 336.857218,156.084689 C339.397002,156.084689 341.768562,155.328237 343.969162,153.813966 L343.969162,164.47394 C341.514173,165.402438 338.014276,165.865321 333.469471,165.865321 C328.953386,165.865321 325.482211,164.468478 323.055944,161.672061 C320.628309,158.875644 319.415176,154.896758 319.415176,149.736768 L319.415176,124.614076 L319.416543,124.614076 Z" id="Shape"></path>
                <polygon id="Shape" points="396.720637 165.863956 392.869246 165.863956 380.420609 135.3669 368.017105 165.863956 364.121948 165.863956 347.017724 115.299059 358.153386 115.299059 367.253939 144.914042 378.345836 115.299059 382.156197 115.299059 393.629677 145.099741 403.452365 115.299059 413.865892 115.299059"></polygon>
                <path d="M417.170211,140.002562 C417.170211,132.432574 419.167026,126.267622 423.162023,121.510436 C427.155653,116.751885 432.42533,114.371926 438.975157,114.371926 C445.860066,114.371926 451.209068,116.659035 455.019429,121.231887 C458.829789,125.804738 460.73497,132.06254 460.73497,140.002562 C460.73497,147.912543 458.79423,154.200385 454.914117,158.866086 C451.032637,163.531788 445.719194,165.863956 438.975157,165.863956 C432.087513,165.863956 426.73304,163.50721 422.907635,158.796449 C419.08223,154.084323 417.170211,147.819694 417.170211,140.002562 Z M428.177311,140.002562 C428.177311,150.941085 431.775681,156.409664 438.973789,156.409664 C442.275372,156.409664 444.893115,154.989608 446.825649,152.146766 C448.75955,149.303925 449.726501,145.256767 449.726501,140.002562 C449.726501,129.219698 446.141808,123.827584 438.973789,123.827584 C435.670838,123.827584 433.046258,125.249005 431.098679,128.091847 C429.151101,130.933323 428.177311,134.904016 428.177311,140.002562 Z" id="Shape"></path>
                <path d="M495.407063,126.096942 C493.51556,124.736966 491.442155,124.056978 489.182745,124.056978 C486.727756,124.056978 484.547672,125.279044 482.642492,127.719082 C480.737311,130.160485 479.785405,133.142601 479.785405,136.664066 L479.785405,164.936823 L469.200918,164.936823 L469.200918,115.297693 L479.785405,115.297693 L479.785405,119.83914 C482.747803,116.193421 486.685358,114.370561 491.596703,114.370561 C495.210117,114.370561 497.975569,114.972719 499.894426,116.178401 L495.407063,126.096942 Z" id="Shape"></path>
                <polygon id="Shape" points="535.24489 164.936823 521.908628 142.457619 516.829059 148.345387 516.829059 164.936823 506.244571 164.936823 506.244571 96.8055676 516.829059 94.0241706 516.829059 134.346918 531.943307 115.299059 544.685995 115.299059 529.359756 134.116159 547.817986 164.936823 535.24489 164.936823"></polygon>
            </g>
            <g id="Group" transform="translate(345.000000, 189.000000)" fill="#1F5EAC">
                <path d="M17.1302386,9.79652632 L14.9502754,21.1571579 C14.8612694,21.6196842 14.8160817,22.178 14.8160817,22.8348421 C14.8160817,24.7328421 15.0885771,26.4885263 15.6321986,28.106 L12.4047028,28.106 C12.2266907,27.7173684 12.0377241,27.0605263 11.8391721,26.1368421 C11.3174598,26.8306316 10.5410533,27.3930526 9.50858331,27.8227368 C8.47748261,28.2537895 7.38476235,28.4713684 6.23042253,28.4713684 C4.47768828,28.4713684 3.11110329,27.9034737 2.12929825,26.7663158 C1.1474932,25.6305263 0.65590602,23.998 0.65590602,21.8701053 C0.65590602,18.2971579 1.61854053,15.1265263 3.54244024,12.3609474 C5.46633994,9.59536842 7.94344639,8.21326316 10.9723903,8.21326316 C13.835646,8.21052632 15.8882621,8.74010526 17.1302386,9.79652632 Z M13.6357247,11.8217895 C13.3358429,11.2990526 12.3266513,11.0376842 10.6081502,11.0376842 C8.85541593,11.0376842 7.31355752,12.0585263 5.98257495,14.1002105 C4.65159238,16.1432632 3.9861011,18.6953684 3.9861011,21.7592632 C3.9861011,24.3496842 5.04048029,25.6442105 7.14786936,25.6442105 C8.24606692,25.6442105 9.27853694,25.0215789 10.2425408,23.7749474 C11.2079139,22.5296842 11.8788825,20.9341053 12.2568158,18.9882105 L13.6357247,11.8217895 Z" id="Shape"></path>
                <path d="M23.7235319,11.3113684 L21.6599612,11.3113684 L22.1926281,8.57589474 L24.2561988,8.57589474 L24.988787,4.49115789 L28.5996934,2.99547368 L27.4179671,8.57589474 L32.3105604,8.57589474 L31.7778935,11.3113684 L26.8853002,11.3113684 L25.0216507,21.0121053 C24.8778718,21.7661053 24.8052976,22.3504211 24.8052976,22.7623158 C24.8052976,24.622 25.6474316,25.5525263 27.3344384,25.5525263 C28.1546632,25.5525263 29.0365076,25.3267368 29.9799716,24.8778947 L29.8635791,27.924 C28.9543482,28.288 27.485064,28.47 25.454357,28.47 C24.1904713,28.47 23.2045583,28.0416842 22.5007259,27.1850526 C21.7955243,26.3284211 21.4436081,25.1515789 21.4436081,23.6572632 C21.4436081,23.3165263 21.4942731,22.8964211 21.5928644,22.3983158 L23.7235319,11.3113684 Z" id="Shape"></path>
                <polygon id="Shape" points="59.1232865 28.1046316 54.3977506 15.8148421 50.3377061 20.8656842 49.1724117 28.1046316 45.8107221 28.1046316 50.1035517 1.39031579 53.4652412 1.39031579 51.2688461 15.2141053 62.3521516 1.39031579 66.2287068 1.39031579 57.0761477 12.9698947 62.9669779 28.106 59.1232865 28.106"></polygon>
                <path d="M70.3092913,18.8773684 C70.2093306,19.4616842 70.160035,20.0213684 70.160035,20.5564211 C70.160035,22.1615789 70.5708321,23.3945263 71.3910569,24.258 C72.2112818,25.1214737 73.3601443,25.5525263 74.8362752,25.5525263 C76.1453486,25.5525263 77.4653766,25.0229474 78.7963591,23.9651579 L78.4636135,27.5038947 C76.6889701,28.1484211 75.1197252,28.47 73.7545095,28.47 C69.161798,28.47 66.8654423,25.6496842 66.8654423,20.0076842 C66.8654423,16.6892632 67.8308155,13.8935789 69.7615618,11.6206316 C71.6923081,9.34768421 74.1214882,8.21052632 77.0504715,8.21052632 C78.8141603,8.21052632 80.2231944,8.62378947 81.2762042,9.45031579 C82.3305834,10.2768421 82.8564037,11.4564211 82.8564037,12.9876842 C82.8564037,15.1155789 82.0348095,16.7918947 80.3943598,18.0207368 C78.7525408,19.2482105 76.739635,19.8626316 74.3542733,19.8626316 C72.7562726,19.8626316 71.4074888,19.5342105 70.3092913,18.8773684 Z M70.85839,16.3608421 C71.7018934,16.7754737 72.694653,16.9807368 73.8366689,16.9807368 C75.567494,16.9807368 76.9820053,16.6742105 78.0802029,16.0597895 C79.1784004,15.4467368 79.7274992,14.5490526 79.7274992,13.3694737 C79.7274992,11.8751579 78.7854045,11.1266316 76.8998459,11.1266316 C74.0256356,11.128 72.0127299,12.8727368 70.85839,16.3608421 Z" id="Shape"></path>
                <path d="M96.4044917,28.1046316 L98.2681412,16.744 C98.4351987,15.7354737 98.5173581,14.8952632 98.5173581,14.2274737 C98.5173581,12.1597895 97.535553,11.1266316 95.571943,11.1266316 C94.8174456,11.1266316 94.0095447,11.3702105 93.1509788,11.856 C92.2910435,12.3417895 91.6063817,12.9192632 91.095624,13.5884211 L88.7828364,28.1032632 L85.5882043,28.1032632 L87.9845207,13.2969474 C88.040663,12.9562105 88.0680494,12.5552632 88.0680494,12.0927368 C88.0680494,10.8529474 87.9516569,9.77736842 87.7188719,8.866 L90.7806796,8.21052632 C91.0805614,9.98536842 91.2243404,10.9514737 91.2133858,11.1088421 C92.5662776,9.17663158 94.5189331,8.21052632 97.0713523,8.21052632 C100.287894,8.21052632 101.896849,10.0086316 101.896849,13.6075789 C101.896849,14.3246316 101.824275,15.1265263 101.680496,16.0146316 L99.7675506,28.1046316 L96.4044917,28.1046316 Z" id="Shape"></path>
                <path d="M115.876274,28.1046316 L117.739923,16.744 C117.906981,15.7354737 117.98914,14.8952632 117.98914,14.2274737 C117.98914,12.1597895 117.007335,11.1266316 115.043725,11.1266316 C114.289228,11.1266316 113.481327,11.3702105 112.622761,11.856 C111.762826,12.3417895 111.078164,12.9192632 110.567406,13.5884211 L108.254618,28.1032632 L105.059986,28.1032632 L107.456303,13.2969474 C107.512445,12.9562105 107.539832,12.5552632 107.539832,12.0927368 C107.539832,10.8529474 107.423439,9.77736842 107.190654,8.866 L110.252462,8.21052632 C110.552344,9.98536842 110.696122,10.9514737 110.685168,11.1088421 C112.03806,9.17663158 113.990715,8.21052632 116.543134,8.21052632 C119.759676,8.21052632 121.368631,10.0086316 121.368631,13.6075789 C121.368631,14.3246316 121.296057,15.1265263 121.152278,16.0146316 L119.239333,28.1046316 L115.876274,28.1046316 Z" id="Shape"></path>
                <path d="M128.409693,18.8773684 C128.309732,19.4616842 128.260437,20.0213684 128.260437,20.5564211 C128.260437,22.1615789 128.671234,23.3945263 129.491459,24.258 C130.311684,25.1214737 131.460546,25.5525263 132.936677,25.5525263 C134.24575,25.5525263 135.565778,25.0229474 136.896761,23.9651579 L136.564015,27.5038947 C134.789372,28.1484211 133.220127,28.47 131.854911,28.47 C127.2622,28.47 124.965844,25.6496842 124.965844,20.0076842 C124.965844,16.6892632 125.931217,13.8935789 127.861964,11.6206316 C129.79271,9.34768421 132.22189,8.21052632 135.150873,8.21052632 C136.914562,8.21052632 138.323596,8.62378947 139.376606,9.45031579 C140.430985,10.2768421 140.956805,11.4564211 140.956805,12.9876842 C140.956805,15.1155789 140.135211,16.7918947 138.494762,18.0207368 C136.852943,19.2482105 134.840037,19.8626316 132.454675,19.8626316 C130.856674,19.8626316 129.50926,19.5342105 128.409693,18.8773684 Z M128.958792,16.3608421 C129.802295,16.7754737 130.795055,16.9807368 131.937071,16.9807368 C133.667896,16.9807368 135.082407,16.6742105 136.180605,16.0597895 C137.278802,15.4467368 137.827901,14.5490526 137.827901,13.3694737 C137.827901,11.8751579 136.885806,11.1266316 135.000248,11.1266316 C132.126037,11.128 130.113132,12.8727368 128.958792,16.3608421 Z" id="Shape"></path>
                <path d="M154.804775,28.1046316 L155.188186,25.8617895 C153.901022,27.5873684 152.141441,28.4508421 149.910813,28.4508421 C147.981436,28.4508421 146.472441,27.8035789 145.385198,26.5090526 C144.297955,25.2145263 143.754334,23.4547368 143.754334,21.2310526 C143.754334,17.4254737 144.686843,14.3095789 146.550492,11.8847368 C148.412773,9.46126316 150.799504,8.24747368 153.706578,8.24747368 C155.390846,8.24747368 156.686226,9.01378947 157.583133,10.5450526 L159.264662,0.570631579 L162.275805,0.570631579 L157.932311,28.106 L154.804775,28.106 L154.804775,28.1046316 Z M157.00117,13.9907368 C157.02308,13.8826316 156.875193,13.5446316 156.560248,12.9794737 C156.245304,12.4143158 155.861893,11.9709474 155.412755,11.648 C154.963617,11.3250526 154.487092,11.1635789 153.990028,11.1635789 C152.025048,11.1635789 150.398292,12.0366316 149.10565,13.78 C147.813009,15.5247368 147.168057,17.7593684 147.168057,20.4811579 C147.168057,23.9227368 148.45933,25.6414737 151.044613,25.6414737 C152.209907,25.6414737 153.29715,25.012 154.306342,23.7544211 C155.314164,22.4954737 155.97007,20.8697895 156.269952,18.876 L157.00117,13.9907368 Z" id="Shape"></path>
                <path d="M162.746852,35.7636842 L162.746852,32.2810526 C164.809054,32.2810526 166.27423,31.9403158 167.138273,31.2602105 C168.005055,30.5787368 168.625359,29.5578947 169.001923,28.1963158 C167.436786,28.1963158 166.400208,26.5076842 165.890819,23.1276842 L163.661561,8.57589474 L167.106779,8.57589474 L169.070389,22.7445263 C169.259356,24.1416842 169.713971,24.8409474 170.434235,24.8409474 L176.857732,8.57589474 L180.450838,8.57589474 L171.516001,30.4405263 C170.761504,32.2878947 169.757789,33.6371579 168.504858,34.4883158 C167.249189,35.3381053 165.329397,35.7636842 162.746852,35.7636842 Z" id="Shape"></path>
                <path d="M192.455698,27.248 L193.453935,23.7462105 C193.931829,24.1594737 194.643877,24.5125263 195.592818,24.8026316 C196.54176,25.0941053 197.453729,25.2405263 198.330096,25.2405263 C199.650124,25.2405263 200.709981,24.8874737 201.508296,24.1827368 C202.306612,23.478 202.706455,22.5050526 202.706455,21.2652632 C202.706455,20.2321053 202.403834,19.3207368 201.799962,18.5297895 C201.196091,17.7402105 200.163621,16.7672632 198.703922,15.6123158 C197.244223,14.4573684 196.182997,13.3817895 195.517506,12.3855789 C194.853384,11.388 194.519269,10.1413684 194.519269,8.64705263 C194.519269,6.24 195.214885,4.35294737 196.606118,2.98452632 C197.99872,1.61747368 199.798011,0.933263158 202.005361,0.933263158 C204.501638,0.933263158 206.159889,1.17136842 206.981483,1.64484211 L206.033911,5.18357895 C205.721705,4.90442105 205.202732,4.64168421 204.468774,4.39947368 C203.737555,4.15589474 203.054263,4.03410526 202.421635,4.03410526 C201.001647,4.03410526 199.882909,4.38715789 199.061315,5.09052632 C198.239721,5.79663158 197.830293,6.812 197.830293,8.13663158 C197.830293,8.69631579 197.960379,9.23821053 198.22055,9.76094737 C198.480722,10.2836842 198.834007,10.7544211 199.277668,11.1731579 C199.71996,11.5932632 200.633299,12.3677895 202.014946,13.4981053 C203.395224,14.6284211 204.411263,15.7806316 205.060322,16.9533684 C205.709381,18.1261053 206.033911,19.4904211 206.033911,21.0463158 C206.033911,23.4670526 205.293107,25.3226316 203.812868,26.6171579 C202.33126,27.9116842 200.375866,28.5589474 197.946686,28.5589474 C197.081273,28.5589474 196.104945,28.4248421 195.017702,28.158 C193.93046,27.8911579 193.076002,27.5873684 192.455698,27.248 Z" id="Shape"></path>
                <path d="M212.558738,27.1193684 L211.160659,35.854 L207.997521,35.854 L211.493404,14.4094737 C211.648138,13.4734737 211.726189,12.5566316 211.726189,11.6562105 C211.726189,10.7325263 211.642661,9.83210526 211.475603,8.95631579 L214.653803,8.30084211 C214.708576,8.45821053 214.808537,9.29294737 214.953685,10.7982105 C215.475398,10.0934737 216.224418,9.50231579 217.200745,9.02063158 C218.177073,8.54031579 219.086304,8.30084211 219.929807,8.30084211 C222.148112,8.30084211 223.809101,8.90157895 224.914145,10.1057895 C226.01782,11.31 226.569658,13.1204211 226.569658,15.5397895 C226.569658,19.2358947 225.63441,22.3298947 223.765283,24.8217895 C221.896156,27.3136842 219.440959,28.5589474 216.40106,28.5589474 C215.746524,28.5589474 214.996134,28.418 214.147154,28.1388421 C213.300912,27.8610526 212.769614,27.5203158 212.558738,27.1193684 Z M213.024308,24.258 C213.224229,24.6466316 213.62818,24.9750526 214.240268,25.2432632 C214.849617,25.5101053 215.420625,25.6442105 215.953291,25.6442105 C218.271556,25.6442105 220.061262,24.7834737 221.32104,23.0633684 C222.579449,21.3432632 223.209337,18.9936842 223.209337,16.016 C223.209337,14.4108421 222.83962,13.2107368 222.101555,12.4143158 C221.364858,11.6178947 220.257076,11.2196842 218.782314,11.2196842 C218.138732,11.2196842 217.392451,11.4673684 216.54347,11.9586316 C215.695859,12.4498947 215.091987,12.9644211 214.738701,13.4994737 L213.024308,24.258 Z" id="Shape"></path>
                <path d="M245.593671,9.79652632 L243.413708,21.1571579 C243.324702,21.6196842 243.279514,22.178 243.279514,22.8348421 C243.279514,24.7328421 243.55064,26.4885263 244.095631,28.106 L240.868135,28.106 C240.690123,27.7173684 240.501156,27.0605263 240.302604,26.1368421 C239.780892,26.8306316 239.004486,27.3930526 237.973385,27.8227368 C236.940915,28.2537895 235.848195,28.4713684 234.693855,28.4713684 C232.94112,28.4713684 231.574535,27.9034737 230.59273,26.7663158 C229.610925,25.6305263 229.120708,23.998 229.120708,21.8701053 C229.120708,18.2971579 230.081973,15.1265263 232.007242,12.3609474 C233.931141,9.59536842 236.408248,8.21326316 239.437192,8.21326316 C242.299078,8.21052632 244.351694,8.74010526 245.593671,9.79652632 Z M242.100526,11.8217895 C241.800644,11.2990526 240.791453,11.0376842 239.071582,11.0376842 C237.318848,11.0376842 235.77699,12.0585263 234.446007,14.1002105 C233.113655,16.1432632 232.448164,18.6953684 232.448164,21.7592632 C232.448164,24.3496842 233.502543,25.6442105 235.611302,25.6442105 C236.709499,25.6442105 237.7406,25.0215789 238.705973,23.7749474 C239.671346,22.5296842 240.342315,20.9341053 240.720248,18.9882105 L242.100526,11.8217895 Z" id="Shape"></path>
                <path d="M262.288465,9.19578947 L261.705133,12.168 C260.906817,11.4742105 259.836006,11.128 258.494069,11.128 C256.452407,11.128 254.802372,12.012 253.543964,13.78 C252.284186,15.5493684 251.654297,17.7224211 251.654297,20.3005263 C251.654297,21.8796842 252.062356,23.1413684 252.878473,24.0842105 C253.694589,25.0270526 254.621622,25.4977895 255.665046,25.4977895 C257.274001,25.4977895 258.81586,24.9558947 260.291991,23.8734737 L259.941444,27.4108421 C258.487222,28.1169474 256.896068,28.4686316 255.166612,28.4686316 C252.970217,28.4686316 251.283211,27.7789474 250.108331,26.3982105 C248.933451,25.0188421 248.344642,23.1851579 248.344642,20.8998947 C248.344642,17.1791579 249.277151,14.1357895 251.140801,11.7643158 C253.003081,9.39421053 255.377488,8.20778947 258.261284,8.20778947 C259.9702,8.21052632 261.312137,8.53757895 262.288465,9.19578947 Z" id="Shape"></path>
                <path d="M268.547643,18.8773684 C268.447682,19.4616842 268.398387,20.0213684 268.398387,20.5564211 C268.398387,22.1615789 268.809184,23.3945263 269.629409,24.258 C270.449633,25.1214737 271.598496,25.5525263 273.074627,25.5525263 C274.3837,25.5525263 275.703728,25.0229474 277.034711,23.9651579 L276.703334,27.5038947 C274.927322,28.1484211 273.358077,28.47 271.99423,28.47 C267.401519,28.47 265.105163,25.6496842 265.105163,20.0076842 C265.105163,16.6892632 266.070536,13.8935789 267.999913,11.6206316 C269.93066,9.34768421 272.361209,8.21052632 275.288823,8.21052632 C277.052512,8.21052632 278.460177,8.62378947 279.515925,9.45031579 C280.570304,10.2768421 281.096125,11.4564211 281.096125,12.9876842 C281.096125,15.1155789 280.274531,16.7918947 278.632711,18.0207368 C276.990892,19.2495789 274.976617,19.8626316 272.592625,19.8626316 C270.993255,19.8626316 269.64584,19.5342105 268.547643,18.8773684 Z M269.098111,16.3608421 C269.940245,16.7754737 270.934374,16.9807368 272.07639,16.9807368 C273.807215,16.9807368 275.221726,16.6742105 276.319924,16.0597895 C277.419491,15.4467368 277.96722,14.5490526 277.96722,13.3694737 C277.96722,11.8751579 277.025126,11.1266316 275.139567,11.1266316 C272.263987,11.128 270.249712,12.8727368 269.098111,16.3608421 Z" id="Shape"></path>
                <path d="M313.681919,1.79263158 L312.767211,5.34778947 C311.834702,4.57052632 310.520151,4.18052632 308.823559,4.18052632 C306.205412,4.18052632 304.000801,5.61189474 302.208356,8.476 C300.417281,11.3387368 299.521743,14.43 299.521743,17.7470526 C299.521743,22.7691579 301.423734,25.2788421 305.229084,25.2788421 C307.192694,25.2788421 309.100162,24.3962105 310.954226,22.6336842 L310.687208,26.4994737 C309.323362,27.8733684 307.210496,28.5603158 304.34724,28.5603158 C301.685275,28.5603158 299.627181,27.6612632 298.174329,25.8617895 C296.720107,24.0623158 295.994366,21.5827368 295.994366,18.4203158 C295.994366,13.5336842 297.206217,9.39694737 299.62992,6.01284211 C302.053623,2.626 305.185266,0.933263158 309.022111,0.933263158 C310.954226,0.934631579 312.507039,1.22063158 313.681919,1.79263158 Z" id="Shape"></path>
                <path d="M320.058859,18.8773684 C319.958899,19.4616842 319.909603,20.0213684 319.909603,20.5564211 C319.909603,22.1615789 320.3204,23.3945263 321.140625,24.258 C321.96085,25.1214737 323.109712,25.5525263 324.585843,25.5525263 C325.894917,25.5525263 327.214945,25.0229474 328.545927,23.9651579 L328.214551,27.5038947 C326.438538,28.1484211 324.869293,28.47 323.505447,28.47 C318.912735,28.47 316.61638,25.6496842 316.61638,20.0076842 C316.61638,16.6892632 317.581753,13.8935789 319.51113,11.6206316 C321.441876,9.34768421 323.872426,8.21052632 326.80004,8.21052632 C328.563728,8.21052632 329.971393,8.62378947 331.027142,9.45031579 C332.081521,10.2768421 332.607341,11.4564211 332.607341,12.9876842 C332.607341,15.1155789 331.785747,16.7918947 330.143928,18.0207368 C328.502109,19.2495789 326.487834,19.8626316 324.103841,19.8626316 C322.504471,19.8626316 321.157057,19.5342105 320.058859,18.8773684 Z M320.609327,16.3608421 C321.451461,16.7754737 322.44559,16.9807368 323.587606,16.9807368 C325.318431,16.9807368 326.732943,16.6742105 327.83114,16.0597895 C328.930707,15.4467368 329.478437,14.5490526 329.478437,13.3694737 C329.478437,11.8751579 328.536342,11.1266316 326.650783,11.1266316 C323.775204,11.128 321.762298,12.8727368 320.609327,16.3608421 Z" id="Shape"></path>
                <path d="M346.15406,28.1046316 L348.017709,16.744 C348.183397,15.7354737 348.266926,14.8952632 348.266926,14.2274737 C348.266926,12.1597895 347.285121,11.1266316 345.32288,11.1266316 C344.568383,11.1266316 343.760482,11.3702105 342.900547,11.856 C342.040612,12.3417895 341.35595,12.9192632 340.846561,13.5884211 L338.533774,28.1032632 L335.339142,28.1032632 L337.735458,13.2969474 C337.790231,12.9562105 337.818987,12.5552632 337.818987,12.0927368 C337.818987,10.8529474 337.702594,9.77736842 337.46844,8.866 L340.530248,8.21052632 C340.83013,9.98536842 340.973908,10.9514737 340.962954,11.1088421 C342.315846,9.17663158 344.268501,8.21052632 346.819551,8.21052632 C350.037462,8.21052632 351.645048,10.0086316 351.645048,13.6075789 C351.645048,14.3246316 351.572473,15.1265263 351.428694,16.0146316 L349.515749,28.1046316 L346.15406,28.1046316 Z" id="Shape"></path>
                <path d="M358.853167,11.3113684 L356.789596,11.3113684 L357.323633,8.57589474 L359.387203,8.57589474 L360.118422,4.49115789 L363.730698,2.99547368 L362.548972,8.57589474 L367.440196,8.57589474 L366.907529,11.3113684 L362.016305,11.3113684 L360.152655,21.0121053 C360.008876,21.7661053 359.936302,22.3504211 359.936302,22.7623158 C359.936302,24.622 360.779806,25.5525263 362.466812,25.5525263 C363.288406,25.5525263 364.168882,25.3267368 365.112345,24.8778947 L364.995953,27.924 C364.086722,28.288 362.617438,28.47 360.586731,28.47 C359.321476,28.47 358.336932,28.0416842 357.6331,27.1850526 C356.929267,26.3284211 356.577351,25.1515789 356.577351,23.6572632 C356.577351,23.3165263 356.626647,22.8964211 356.726608,22.3983158 L358.853167,11.3113684 Z" id="Shape"></path>
                <path d="M373.852738,18.8773684 C373.752778,19.4616842 373.703482,20.0213684 373.703482,20.5564211 C373.703482,22.1615789 374.114279,23.3945263 374.934504,24.258 C375.754729,25.1214737 376.903591,25.5525263 378.379722,25.5525263 C379.688796,25.5525263 381.008824,25.0229474 382.339806,23.9651579 L382.00843,27.5038947 C380.232417,28.1484211 378.663172,28.47 377.299326,28.47 C372.706614,28.47 370.410259,25.6496842 370.410259,20.0076842 C370.410259,16.6892632 371.375632,13.8935789 373.305009,11.6206316 C375.235755,9.34768421 377.666305,8.21052632 380.593918,8.21052632 C382.357607,8.21052632 383.765272,8.62378947 384.821021,9.45031579 C385.8754,10.2768421 386.40122,11.4564211 386.40122,12.9876842 C386.40122,15.1155789 385.579626,16.7918947 383.937807,18.0207368 C382.295988,19.2495789 380.281713,19.8626316 377.89772,19.8626316 C376.29835,19.8626316 374.949566,19.5342105 373.852738,18.8773684 Z M374.401837,16.3608421 C375.243971,16.7754737 376.2381,16.9807368 377.380116,16.9807368 C379.110941,16.9807368 380.525452,16.6742105 381.62365,16.0597895 C382.723217,15.4467368 383.270946,14.5490526 383.270946,13.3694737 C383.270946,11.8751579 382.328852,11.1266316 380.443293,11.1266316 C377.567713,11.128 375.554808,12.8727368 374.401837,16.3608421 Z" id="Shape"></path>
                <path d="M401.728059,12.0024211 C401.062568,11.4181053 400.284792,11.1266316 399.397471,11.1266316 C398.277364,11.1266316 397.206553,11.6945263 396.186407,12.8316842 C395.164891,13.9688421 394.528156,15.3263158 394.273462,16.9082105 L392.459108,28.1046316 L389.29734,28.1046316 L392.442676,8.57589474 L395.604444,8.57589474 L395.10601,11.6931579 C396.636914,9.37231579 398.538905,8.21052632 400.813351,8.21052632 C401.20087,8.21052632 401.80748,8.29673684 402.627705,8.46642105 L401.728059,12.0024211 Z" id="Shape"></path>
            </g>
        </g>
    </g>
</svg>