<?xml version="1.0" encoding="UTF-8"?>
<svg width="227px" height="70px" viewBox="0 0 227 70" version="1.1" xmlns="http://www.w3.org/2000/svg" xmlns:xlink="http://www.w3.org/1999/xlink">
    <!-- Generator: Sketch 51.2 (57519) - http://www.bohemiancoding.com/sketch -->
    <title>logo/lykke</title>
    <desc>Created with Sketch.</desc>
    <defs>
        <linearGradient x1="49.9958406%" y1="-23.7802964%" x2="49.9958406%" y2="126.695292%" id="linearGradient-1">
            <stop stop-color="#FF0029" offset="0%"></stop>
            <stop stop-color="#AB00FF" offset="100%"></stop>
        </linearGradient>
        <linearGradient x1="-25.4927812%" y1="7.0381276%" x2="100.712386%" y2="143.285013%" id="linearGradient-2">
            <stop stop-color="#FF9100" offset="0%"></stop>
            <stop stop-color="#FF0029" offset="51.5%"></stop>
            <stop stop-color="#AB00FF" offset="100%"></stop>
        </linearGradient>
    </defs>
    <g id="logo/lykke" stroke="none" stroke-width="1" fill="none" fill-rule="evenodd">
        <g id="lykke-logo" fill-rule="nonzero">
            <polygon id="XMLID_30_" fill="url(#linearGradient-1)" points="17 70 37.6207972 49.3714037 58 70 58 57.6285963 37.6207972 37 17 57.6285963"></polygon>
            <polygon id="XMLID_29_" fill="#FF8F1C" points="0 29 28.5077388 29 37 38 8.4782937 38"></polygon>
            <polygon id="XMLID_28_" fill="url(#linearGradient-2)" points="74 28.5077388 45.5330547 28.5077388 45.5330547 8.4782937 37 0 37 37 65.4528875 37"></polygon>
            <g id="XMLID_3_" transform="translate(91.000000, 12.000000)" fill="#171C8F">
                <polygon id="XMLID_53_" points="0.0854851313 0.0576884954 8.73373091 0.0576884954 8.73373091 29.7384194 20.2742236 29.7384194 23.3944309 38.2618946 0.0854851313 38.2618946"></polygon>
                <polygon id="XMLID_51_" points="35.4193394 28.526961 40.9473779 11.4944327 49.3676633 11.4944327 35.9037551 48.4727583 27.4834697 48.4727583 31.0880927 38.4926486 21.2288076 11.4944327 29.649093 11.4944327 35.4193394 28.526961"></polygon>
                <path d="M60.4094928,38.4926486 L52.4736231,38.4926486 L52.4736231,0.0576884954 L60.4094928,0.0576884954 L60.4094928,23.6522831 L69.0577385,11.2492566 L78.1904001,11.2492566 L69.2999464,24.1426353 L79.6293998,38.2618946 L70.2545304,38.2618946 L60.3952452,24.8781637 C60.4094928,24.8637415 60.4094928,38.4926486 60.4094928,38.4926486 Z" id="XMLID_49_"></path>
                <polygon id="XMLID_47_" points="90.2153085 38.4926486 82.2794388 38.4926486 82.2794388 0.0576884954 90.2153085 0.0576884954 90.2153085 23.6522831 98.8635543 11.2492566 108.238424 11.2492566 99.34797 24.1426353 109.677423 38.2618946 100.302554 38.2618946 90.201061 25.1233398 90.201061 38.4926486"></polygon>
                <path d="M109.207255,24.8637415 C109.207255,16.8306185 114.735294,10.9896584 122.913371,10.9896584 C129.638202,10.9896584 135.650656,15.373984 135.650656,23.8830371 C135.650656,24.6185654 135.650656,25.3396716 135.408448,26.320376 L116.658709,26.320376 C117.143125,29.9691734 120.021124,31.4258079 122.428955,31.4258079 C125.306955,31.4258079 127.00241,29.9691734 128.199202,28.0221867 L134.696072,32.4065123 C132.288241,36.3004858 127.971241,38.9830008 122.671163,38.9830008 C115.704125,38.9830008 109.207255,33.3872167 109.207255,24.8637415 Z M127.714786,21.7052964 L127.714786,21.4601203 C127.23037,18.7776053 124.836787,17.5661469 122.428955,17.5661469 C120.50554,17.5661469 117.627541,18.5324292 116.900917,21.7052964 L127.714786,21.7052964 Z" id="XMLID_44_"></path>
            </g>
        </g>
    </g>
</svg>